<?xml version="1.0" encoding="UTF-8" standalone="no"?>
<svg width="1024px" height="1024px" viewBox="0 0 1024 1024" version="1.1" xmlns="http://www.w3.org/2000/svg" xmlns:xlink="http://www.w3.org/1999/xlink" xmlns:sketch="http://www.bohemiancoding.com/sketch/ns">
    <!-- Generator: Sketch 3.4.4 (17249) - http://www.bohemiancoding.com/sketch -->
    <title>icon</title>
    <desc>Created with Sketch.</desc>
    <defs>
        <path d="M417.500236,0 C279.106639,0 167.000094,112.106545 167.000094,250.500142 C167.000094,299.981651 180.916769,345.597418 205.657524,384.254847 L16.2361203,572.903102 C-5.4120401,594.551262 -5.4120401,630.116097 16.2361203,651.764257 C27.0602005,662.588338 40.976875,668.000378 55.6666981,668.000378 C69.5833727,668.000378 84.2731958,662.588338 95.097276,651.764257 L283.745531,462.342854 C322.40296,487.083609 368.018727,501.000283 417.500236,501.000283 C555.893833,501.000283 668.000378,388.893738 668.000378,250.500142 C668.000378,112.106545 555.893833,0 417.500236,0 L417.500236,0 Z M417.500236,417.500236 C325.495554,417.500236 250.500142,342.504823 250.500142,250.500142 C250.500142,158.49546 325.495554,83.5000472 417.500236,83.5000472 C509.504918,83.5000472 584.50033,158.49546 584.50033,250.500142 C584.50033,342.504823 509.504918,417.500236 417.500236,417.500236 L417.500236,417.500236 Z" id="path-1"></path>
    </defs>
    <g id="Page-1" stroke="none" stroke-width="1" fill="none" fill-rule="evenodd" sketch:type="MSPage">
        <g id="icon" sketch:type="MSArtboardGroup">
            <g sketch:type="MSLayerGroup">
                <rect id="Rectangle-2" fill="#4990E2" sketch:type="MSShapeGroup" x="0" y="0" width="1024" height="1024"></rect>
                <g id="Rectangle-1-+-Page-1" transform="translate(165.000000, 178.000000)">
                    <g id="Rectangle-1" transform="translate(26.000000, 0.000000)">
                        <mask id="mask-2" sketch:name="Mask" fill="white">
                            <use xlink:href="#path-1"></use>
                        </mask>
                        <use id="Mask" fill="#FFFFFF" sketch:type="MSShapeGroup" transform="translate(334.000189, 334.000189) scale(-1, 1) translate(-334.000189, -334.000189) " xlink:href="#path-1"></use>
                        <rect fill="#4990E2" sketch:type="MSShapeGroup" mask="url(#mask-2)" x="-49" y="243" width="167" height="65"></rect>
                    </g>
                    <path d="M221.212775,262.6718 L209.71606,293.36686 L0,293.36686 L0,262.554315 L188.359596,262.554315 L227.497951,158 L257.218785,280.385007 L284.802587,193.878282 L312.434588,266.454835 L314.149274,262.554315 L392.662162,262.554315 L392.662162,293.36686 L334.253764,293.36686 L310.367444,347.628921 L287.384257,287.241947 L253.218854,394.443 L221.212775,262.6718 Z" id="Page-1" fill="#FFFFFF" sketch:type="MSShapeGroup"></path>
                </g>
            </g>
        </g>
    </g>
</svg>